<svg viewBox="0 0 100 100" xmlns="http://www.w3.org/2000/svg">
    <defs>
        <!-- 선택된 세포를 위한 글로우 효과 그라데이션 -->
        <radialGradient id="glowGradient" cx="50%" cy="50%" r="50%" fx="50%" fy="50%">
            <stop offset="0%" style="stop-color: #67e8f9; stop-opacity: 1" />
            <stop offset="100%" style="stop-color: #0d9488; stop-opacity: 1" />
        </radialGradient>
        <!-- 그림자 필터 -->
        <filter id="dropShadow" x="-20%" y="-20%" width="140%" height="140%">
            <feGaussianBlur in="SourceAlpha" stdDeviation="1.5"/>
            <feOffset dx="1" dy="2" result="offsetblur"/>
            <feFlood flood-color="#000000" flood-opacity="0.2"/>
            <feComposite in2="offsetblur" operator="in"/>
            <feMerge>
                <feMergeNode/>
                <feMergeNode in="SourceGraphic"/>
            </feMerge>
        </filter>
    </defs>

    <!-- 전체 로고 그룹에 그림자 적용 -->
    <g filter="url(#dropShadow)">
        <!-- 바깥쪽 원/현미경 뷰 (내부를 흰색으로 채움) -->
        <circle cx="50" cy="50" r="48" fill="#ffffff" stroke="#e2e8f0" stroke-width="1"/>
        <circle cx="50" cy="50" r="46" fill="#ffffff" stroke="#475569" stroke-width="2.5"/>

        <!-- 다양하고 많은 세포 집단 (선택되지 않음) -->
        <circle cx="20" cy="25" r="3" fill="#cbd5e1"/>
        <circle cx="35" cy="22" r="4" fill="#e2e8f0"/>
        <circle cx="50" cy="18" r="2.5" fill="#cbd5e1"/>
        <circle cx="68" cy="24" r="5" fill="#b0bec5"/>
        <circle cx="80" cy="35" r="3.5" fill="#cbd5e1"/>
        <circle cx="18" cy="45" r="5" fill="#e2e8f0"/>
        <circle cx="30" cy="50" r="3.5" fill="#b0bec5"/>
        <circle cx="15" cy="65" r="4" fill="#cbd5e1"/>
        <circle cx="30" cy="80" r="4.5" fill="#e2e8f0"/>
        <circle cx="50" cy="85" r="3" fill="#b0bec5"/>
        <circle cx="70" cy="82" r="5" fill="#cbd5e1"/>
        <circle cx="85" cy="75" r="2.5" fill="#e2e8f0"/>
        <circle cx="88" cy="55" r="4" fill="#b0bec5"/>
        <circle cx="78" cy="65" r="3" fill="#cbd5e1"/>
         <circle cx="38" cy="38" r="2" fill="#e2e8f0"/>

        <!-- 선택 상자 (더 세련된 스타일) -->
        <rect x="38" y="43" width="32" height="32" fill="rgba(20, 184, 166, 0.25)" stroke="#14b8a6" stroke-width="1.5" rx="3"/>

        <!-- 선택된 세포 (글로우 효과 적용) -->
        <circle cx="48" cy="55" r="4.5" fill="url(#glowGradient)"/>
        <circle cx="62" cy="50" r="4" fill="url(#glowGradient)"/>
        <circle cx="55" cy="65" r="5" fill="url(#glowGradient)"/>
    </g>
</svg>